<svg width="68" height="57" viewBox="0 0 68 57" fill="none" xmlns="http://www.w3.org/2000/svg">
<path d="M46.6039 17.9418L40.8455 23.6262C42.8452 21.8116 44.7523 19.9045 46.6039 17.9418Z" fill="url(#paint0_linear)"/>
<path d="M46.1412 17.9418C44.2156 19.8304 42.3085 21.7375 40.3828 23.6261C40.5309 23.478 41.142 23.7742 41.3086 23.6261C43.2898 21.793 45.1969 19.8859 47.067 17.9418C46.9189 18.1084 46.2893 17.7936 46.1412 17.9418C44.2896 19.9044 42.364 21.8116 40.3828 23.6261C40.6976 23.6261 40.9938 23.6261 41.3086 23.6261C43.2342 21.7375 45.1414 19.8304 47.067 17.9418C46.9189 18.1084 46.3079 17.7936 46.1412 17.9418Z" fill="#010202"/>
<path d="M66.5271 6.22129C63.509 5.42511 59.2319 5.72136 56.8619 6.38793C56.8619 6.38793 56.8619 6.38793 56.8434 6.40644C56.4175 6.9434 55.9731 7.48035 55.5843 8.03583C55.4362 8.20247 55.288 8.36911 55.1399 8.51724C54.5844 9.20232 54.0845 9.83186 53.9364 9.9985C53.5661 10.4058 48.215 16.3494 48.215 16.3494L46.6042 17.9418C44.7526 19.8859 42.8455 21.793 40.8458 23.6261L46.6042 17.9418C49.5111 14.8681 52.307 11.7019 55.1584 8.51724C55.9176 7.57293 56.7508 6.51754 56.8434 6.38793C57.9914 4.92518 59.0468 3.44392 58.9171 1.5368C58.732 0.425849 57.621 -0.129623 56.6953 0.0555342C47.03 2.09227 38.8646 7.12855 33.0877 14.8496C33.532 12.7388 32.6433 10.591 31.2731 8.92458C29.9215 7.29519 27.8847 6.25831 25.7739 6.05464C23.0151 5.79542 20.3303 6.85082 17.627 7.49887C14.8681 8.14692 11.9797 8.40615 9.1653 8.16544C9.1653 8.16544 4.81409 7.79513 0.462891 7.42481C1.83306 7.55442 3.20322 7.68403 3.20322 7.68403C6.38793 7.98028 9.57265 8.27653 12.7574 8.55427C14.3497 8.70239 15.9976 8.86904 17.3493 9.77631C18.5158 10.5725 19.349 11.8316 20.034 13.1091C21.145 15.1459 22.0708 17.2937 22.7559 19.5341C23.515 21.9597 24.0149 24.4593 24.9963 26.7923C27.6811 33.1062 33.5876 37.1056 39.42 40.1607C45.808 44.1416 51.0294 49.5852 54.8807 56.1768L54.8622 56.1583C54.603 55.5102 47.641 37.4574 44.4008 28.8846C44.1416 28.1439 44.1231 27.2182 44.4378 26.422C44.8822 25.3481 45.9376 24.2741 46.9189 23.7557C54.3438 19.8859 61.5834 15.2014 66.9715 8.49872C67.3603 8.01731 67.7492 7.35074 67.4529 6.79527C67.3048 6.46199 66.8974 6.31386 66.5271 6.22129Z" fill="url(#paint1_linear)"/>
<path d="M66.99 6.2213C64.6941 5.64731 62.2129 5.62879 59.8614 5.83246C59.1949 5.88801 58.5283 5.96207 57.8617 6.07317C57.1211 6.20278 56.5471 6.22129 56.0657 6.8138C55.1955 7.90623 54.3623 9.01717 53.4365 10.0726C51.5108 12.2574 49.6037 14.4793 47.567 16.5531C45.197 18.9416 42.864 21.3672 40.3829 23.6446C40.6976 23.6446 40.9939 23.6446 41.3087 23.6446C42.938 22.0338 44.5859 20.4044 46.2153 18.7935C49.4186 15.6273 52.4181 12.2019 55.3621 8.79499C56.7878 7.1656 58.6764 5.18441 59.2319 3.03658C59.4911 1.9997 59.4911 0.833208 58.4357 0.259219C57.9358 -0.0185169 57.3433 1.1312e-06 56.7878 0.0185169C55.9176 0.0370327 55.0659 0.314766 54.2327 0.518439C53.0291 0.833207 51.8256 1.20352 50.6591 1.61087C48.4557 2.38853 46.3079 3.36987 44.2712 4.53636C39.7163 7.12857 35.7724 10.6651 32.6248 14.8496C32.9395 14.8496 33.2358 14.8496 33.5506 14.8496C34.0134 12.2574 32.7173 9.55413 30.7176 7.90623C28.9957 6.48051 26.9219 6.01762 24.7556 6.01762C22.3115 6.01762 20.0341 6.77677 17.6826 7.36927C14.9052 8.07287 12.0908 8.36912 9.23937 8.12842C6.462 7.88771 3.70315 7.64701 0.925788 7.4063C0.61102 7.38779 0.296252 7.44334 0 7.4063C2.49963 7.62849 4.99926 7.86919 7.5174 8.09138C9.05421 8.23951 10.5725 8.36912 12.1093 8.51725C13.4054 8.62834 14.7571 8.73944 15.9606 9.25788C18.3121 10.2577 19.5341 12.8129 20.5525 14.9978C21.7745 17.5715 22.5337 20.2562 23.2928 22.9966C23.9964 25.5332 24.9037 27.9403 26.4035 30.1066C27.7736 32.0693 29.4771 33.7913 31.3472 35.291C33.1988 36.7723 35.1985 38.0314 37.2537 39.1979C39.4015 40.4014 41.4383 41.6975 43.3639 43.2528C47.8262 46.8264 51.5294 51.2331 54.4178 56.1583C54.4919 56.2879 55.2881 56.0287 55.3436 56.1583C54.4734 54.4549 53.9364 52.5107 53.2513 50.7332C51.8071 46.993 50.3814 43.2528 48.9371 39.5126C48.1965 37.5685 47.4374 35.6243 46.6967 33.6617C46.0672 31.9952 45.2155 30.2918 44.7711 28.5698C44.012 25.5517 46.993 23.9594 49.1778 22.7744C51.6034 21.4598 53.9734 20.0526 56.2694 18.4972C58.8616 16.7382 61.3427 14.8126 63.6016 12.6463C64.6941 11.5909 65.7495 10.4799 66.7308 9.33194C67.601 8.38764 68.9527 6.77677 66.99 6.2213C66.7123 6.14723 66.342 6.29536 66.0642 6.2213C67.6751 6.68419 67.0456 7.92475 66.2494 8.88757C65.3791 9.94296 64.4534 10.9613 63.4905 11.9241C61.5279 13.8868 59.3986 15.6643 57.1581 17.2937C54.9177 18.9231 52.5848 20.3859 50.1777 21.756C48.0299 22.9781 44.9933 23.9594 43.9934 26.4405C43.2528 28.3106 44.5674 30.5325 45.234 32.273C45.9561 34.1616 46.6782 36.0687 47.4003 37.9573C48.8631 41.7901 50.3444 45.6413 51.8256 49.4741C52.4366 51.0479 53.0291 52.6033 53.6402 54.1771C53.8994 54.8252 54.1031 55.5473 54.4178 56.1768C54.7326 56.1768 55.0288 56.1768 55.3436 56.1768C52.7884 51.8071 49.5852 47.8447 45.771 44.5119C43.9194 42.901 41.9197 41.2901 39.7718 40.0866C37.7166 38.9386 35.6614 37.8092 33.7357 36.4205C29.7363 33.5506 26.4405 29.8844 24.8667 25.1629C23.9594 22.4596 23.4039 19.6637 22.3485 16.9975C21.4412 14.7015 20.3303 11.9982 18.4787 10.2948C16.2383 8.23951 12.5537 8.48022 9.72077 8.221C6.79528 7.94326 3.85128 7.68404 0.925788 7.4063C0.61102 7.4063 0.314768 7.4063 0 7.4063C3.96237 7.73959 7.96178 8.29506 11.9612 8.23951C14.8126 8.20248 17.5529 7.66552 20.3118 6.90638C21.8486 6.48051 23.4965 5.96208 25.1074 6.03614C26.422 6.09169 27.7551 6.53606 28.8661 7.22115C31.3842 8.75795 33.1617 11.8501 32.6433 14.8311C32.6618 14.7571 33.5135 14.9052 33.5691 14.8311C36.439 11.0169 39.957 7.73958 44.0305 5.22144C46.0117 3.9994 48.1225 2.944 50.2888 2.09228C51.4368 1.62938 52.6033 1.24055 53.8068 0.888754C54.9733 0.536955 56.3435 0.0185158 57.5655 0C57.2692 0 56.9915 0 56.6953 0C58.0284 0.12961 58.6209 1.16649 58.4543 2.42557C58.2691 3.77722 57.4914 4.92519 56.6953 5.98059C54.9363 8.27654 52.9921 10.4059 51.0665 12.5537C48.4557 15.4607 45.7895 18.2565 43.0306 20.9969C42.1604 21.8671 41.2901 22.7188 40.4199 23.5891C40.568 23.441 41.1791 23.7372 41.3457 23.5891C44.2341 20.9413 47.0485 18.1454 49.6778 15.2385C51.9922 12.6833 54.4178 10.1837 56.4916 7.44333C56.7138 7.1656 57.0471 6.53606 57.3433 6.3509C57.547 6.22129 57.8617 6.20278 58.1024 6.16575C58.806 6.01762 59.5282 5.90653 60.2503 5.83246C62.213 5.62879 64.1941 5.70285 66.1013 6.18426C66.3605 6.29536 66.7123 6.14723 66.99 6.2213Z" fill="#DE037F"/>
<defs>
<linearGradient id="paint0_linear" x1="40.85" y1="20.7954" x2="46.6028" y2="20.7954" gradientUnits="userSpaceOnUse">
<stop offset="0.4283" stop-color="#E6007E"/>
<stop offset="1" stop-color="#662483"/>
</linearGradient>
<linearGradient id="paint1_linear" x1="0.467186" y1="28.1141" x2="67.6043" y2="28.1141" gradientUnits="userSpaceOnUse">
<stop offset="0.4283" stop-color="#E6007E"/>
<stop offset="1" stop-color="#662483"/>
</linearGradient>
</defs>
</svg>
